<svg width="38" height="38" viewBox="0 0 38 38" fill="none" xmlns="http://www.w3.org/2000/svg">
<rect x="0.408447" y="0.408447" width="37.1831" height="37.1831" rx="1.77062" fill="#18121F"/>
<g clip-path="url(#clip0_3244_2473)">
<path d="M12.6738 14.9734V22.9917H13.8974V19.3714L16.5371 19.3738V18.2391L13.8974 18.2367V16.097H17.2048V14.9734H13.8869H12.6738Z" fill="#9145F1"/>
<path d="M8.8526 20.0155L6.80054 14.9276H5.54321L8.88223 22.9917L12.0053 14.9276H10.7677L8.8526 20.0155Z" fill="#9145F1"/>
<path d="M21.9917 18.8283C21.9917 17.4232 21.2351 16.8061 19.8528 16.7986C18.2657 16.7899 17.7251 17.6832 17.6485 18.6677H18.8769C18.9542 18.2226 19.0949 17.8596 19.8061 17.8596C20.594 17.8596 20.7347 18.3542 20.7347 18.8148V19.2297H19.926C18.3591 19.2297 17.4001 19.8532 17.4001 21.2101C17.4001 22.1327 17.939 23.0728 19.212 23.0728C20.1836 23.0728 20.5658 22.6388 20.7562 22.2809V22.9327H22.0057C22.0057 22.7556 21.9917 22.027 21.9917 21.465V18.8283ZM20.7385 20.3098C20.7385 21.2011 20.6043 22.0139 19.5524 22.0139C18.9807 22.0139 18.6963 21.6189 18.6963 21.1216C18.6963 20.4539 19.1051 20.1408 20.0511 20.1408H20.7385V20.3098Z" fill="#9145F1"/>
<path d="M26.0623 16.9393C25.0983 16.9393 24.6656 17.4939 24.4752 17.9158V17.0774H23.1787V23.0707H24.4752V19.7885C24.4752 18.6814 24.8499 18.1316 25.6011 18.1316C26.3055 18.1316 26.5436 18.6606 26.5436 19.4111V23.071H27.8296V19.2454C27.8296 17.7104 27.1084 16.9393 26.0623 16.9393Z" fill="#9145F1"/>
<path d="M32.3788 20.8886C32.2824 20.5856 32.093 20.3048 31.8178 20.0583C31.657 19.9095 31.4863 19.7468 31.3596 19.6206L30.3448 18.6579C30.2273 18.5451 30.0968 18.3775 30.1428 18.2172C30.1803 18.0886 30.3295 17.9751 30.5053 17.9418C30.681 17.9084 30.9481 17.934 31.2087 18.2465L31.2741 18.3249L32.1826 17.6041L32.1145 17.5236C31.8833 17.2404 31.5828 17.0202 31.2414 16.8839C30.9358 16.7724 30.6044 16.7491 30.2859 16.8165C29.9988 16.8683 29.7304 16.9931 29.5068 17.1785C29.2759 17.3654 29.1074 17.6169 29.0235 17.9C28.9458 18.1695 28.9516 18.4558 29.0402 18.7219C29.1372 19.0143 29.3076 19.2776 29.5355 19.4872L30.2791 20.1815C30.3155 20.2179 30.756 20.6458 31.0285 20.897C31.2475 21.1028 31.332 21.2967 31.2792 21.4731C31.2162 21.6815 30.9917 21.8546 30.7165 21.9048C30.5498 21.9407 30.3759 21.9252 30.2185 21.8603C30.0182 21.7866 29.8274 21.6361 29.6673 21.425L29.6036 21.3408L28.6838 22.0523L28.7475 22.1334C29.0425 22.5078 29.3863 22.7701 29.7998 22.9358C30.0421 23.0279 30.2998 23.0743 30.5594 23.0725C30.6899 23.0738 30.8202 23.0625 30.9485 23.0388C31.6451 22.9041 32.2136 22.4132 32.3972 21.793C32.4839 21.4966 32.4775 21.1813 32.3788 20.8886Z" fill="#9145F1"/>
</g>
<defs>
<clipPath id="clip0_3244_2473">
<rect width="26.9135" height="8.14487" fill="white" transform="translate(5.54321 14.9276)"/>
</clipPath>
</defs>
</svg>
