<?xml version="1.0" standalone="no"?>
<!DOCTYPE svg PUBLIC "-//W3C//DTD SVG 20010904//EN"
 "http://www.w3.org/TR/2001/REC-SVG-20010904/DTD/svg10.dtd">
<svg version="1.0" xmlns="http://www.w3.org/2000/svg"
 width="700.000000pt" height="700.000000pt" viewBox="0 0 700.000000 700.000000"
 preserveAspectRatio="xMidYMid meet">
<metadata>
Created by potrace 1.14, written by Peter Selinger 2001-2017
</metadata>
<g transform="translate(0.000000,700.000000) scale(0.100000,-0.100000)"
fill="#000000" stroke="none">
<path d="M4326 5919 c-5 -14 -135 -508 -141 -539 -22 -92 -72 -237 -177 -505
-69 -176 -159 -408 -201 -515 -41 -107 -114 -316 -162 -465 -48 -148 -90 -279
-95 -290 -5 -11 -25 -72 -46 -135 -27 -85 -39 -109 -44 -95 -5 11 -69 183
-144 383 -119 318 -157 406 -307 710 -179 363 -177 357 -194 532 -3 36 -8 79
-10 95 -2 17 -6 50 -9 75 -22 200 -18 181 -56 287 -123 351 -147 408 -166 411
-11 2 -157 -25 -324 -59 -168 -33 -317 -63 -332 -66 -21 -3 -633 139 -696 162
-7 2 -22 -5 -33 -16 l-20 -20 39 -72 c22 -40 51 -92 64 -117 14 -25 64 -117
112 -204 l87 -159 86 -306 c47 -168 87 -313 88 -321 6 -24 64 -231 80 -284 8
-26 15 -52 15 -57 0 -4 65 -140 144 -301 79 -161 182 -373 230 -470 117 -240
246 -624 362 -1078 47 -184 87 -342 89 -350 33 -154 109 -397 222 -700 74
-201 139 -369 143 -374 12 -12 1084 -5 1096 7 7 7 80 233 119 372 26 89 175
575 198 645 8 25 41 126 72 225 151 480 163 512 209 577 61 85 73 103 180 258
l94 135 27 130 c15 72 28 139 31 150 42 208 64 295 106 420 173 516 192 568
364 1010 31 77 68 174 84 215 16 41 67 203 115 360 47 157 88 290 90 296 11
36 -5 37 -367 34 -559 -4 -578 -4 -678 3 -242 18 -340 20 -344 6z m332 -73
c29 -2 53 -5 55 -8 1 -3 -25 -36 -58 -72 l-60 -67 -49 53 c-27 29 -61 66 -75
81 l-26 28 80 -6 c44 -4 104 -8 133 -9z m900 -28 c-13 -11 -57 -50 -98 -87
-41 -38 -106 -95 -144 -128 l-70 -61 -95 80 c-53 45 -107 90 -121 102 -14 12
-47 39 -74 61 l-49 40 49 5 c27 3 178 6 337 6 286 2 287 1 265 -18z m-1097
-80 c43 -46 78 -86 79 -91 0 -4 -47 -56 -106 -116 -58 -60 -119 -125 -136
-145 -17 -20 -34 -36 -38 -36 -4 0 19 102 51 228 32 125 59 230 59 235 0 17
17 3 91 -75z m-2806 -14 c11 -2 53 -12 93 -22 l74 -17 -116 -113 c-64 -62
-121 -112 -125 -110 -5 2 -39 41 -75 88 -37 47 -72 92 -79 100 -58 72 -117
149 -117 153 0 2 73 -14 163 -35 89 -22 171 -41 182 -44z m750 20 c-17 -14
-50 -44 -75 -67 -99 -90 -75 -85 -195 -36 -58 24 -105 46 -105 49 0 3 64 18
143 33 78 15 167 33 197 40 30 8 57 12 60 10 2 -2 -9 -15 -25 -29z m169 -114
c15 -64 29 -129 32 -145 3 -16 7 -32 10 -37 8 -12 7 -12 -145 51 -153 64 -161
68 -145 79 6 4 42 35 80 69 113 101 128 113 135 105 4 -4 19 -59 33 -122z
m2172 53 c-9 -97 -11 -111 -17 -118 -6 -5 -79 70 -79 81 0 7 91 111 99 113 2
1 1 -34 -3 -76z m224 1 c21 -19 206 -171 220 -182 7 -5 -186 -182 -200 -182
-4 0 -68 225 -85 300 -4 20 -25 100 -32 125 -5 17 0 15 33 -10 22 -16 50 -39
64 -51z m626 59 c-29 -105 -110 -380 -113 -386 -4 -7 -139 99 -165 130 -10 13
-8 19 11 34 21 17 124 109 231 206 41 38 43 39 36 16z m-3547 -144 c67 -28
121 -55 121 -59 0 -5 -6 -13 -14 -17 -12 -8 -121 -100 -155 -133 -35 -34 -159
-140 -163 -140 -3 0 8 55 23 123 15 67 35 157 44 200 9 42 18 77 20 77 2 0 58
-23 124 -51z m2810 -84 c16 -66 29 -121 27 -122 -2 -2 -22 17 -45 42 -42 46
-42 47 -36 103 3 31 8 66 10 77 2 11 4 22 4 24 3 14 13 -18 40 -124z m-3063
-106 c-20 -95 -38 -174 -40 -176 -2 -2 -33 33 -69 78 l-64 83 70 66 c38 36 84
79 101 96 17 18 32 31 34 29 2 -2 -13 -81 -32 -176z m2918 2 c-3 -25 -6 -65
-8 -89 -2 -23 -5 -44 -8 -47 -2 -3 -69 -7 -149 -11 -79 -3 -175 -7 -213 -9
l-68 -3 54 57 c30 31 104 107 164 169 l109 114 62 -67 c62 -66 63 -68 57 -114z
m-2282 27 c97 -40 172 -75 165 -79 -7 -3 -50 -14 -97 -24 -47 -10 -123 -27
-170 -37 -47 -11 -96 -22 -110 -24 -14 -3 -86 -18 -159 -35 -74 -16 -139 -29
-144 -29 -5 0 11 17 34 39 170 151 295 260 299 261 3 0 85 -32 182 -72z m-913
-37 c-2 -6 -12 4 -22 22 l-18 32 21 -21 c13 -12 21 -27 19 -33z m3810 -22 c40
-34 71 -62 69 -64 -3 -3 -73 -9 -238 -20 -85 -6 -85 -6 -65 13 37 36 150 132
156 132 3 0 38 -27 78 -61z m-457 -93 c2 -5 -21 -11 -49 -13 l-53 -4 6 43 c9
71 11 73 53 26 22 -24 41 -47 43 -52z m-3281 37 c13 -17 13 -17 -6 -3 -11 8
-22 16 -24 17 -2 2 0 3 6 3 6 0 17 -8 24 -17z m1068 -54 c5 -16 -9 -63 -57
-178 -35 -86 -65 -157 -66 -158 -1 -1 -55 16 -121 38 -66 21 -205 67 -308 100
-104 34 -187 63 -185 64 2 2 49 13 104 25 135 28 129 26 214 45 41 9 86 19
100 21 14 3 32 7 40 9 8 2 29 7 45 10 17 3 68 14 115 24 111 25 109 25 119 0z
m-946 -132 l26 -22 4 -250 c4 -288 10 -291 -83 45 -33 118 -66 238 -75 265 -8
28 -15 54 -15 58 0 8 93 -55 143 -96z m3617 98 c0 -3 -196 -117 -246 -143 -20
-11 -23 -7 -42 51 -11 34 -19 63 -18 64 4 5 67 12 156 18 52 4 96 8 97 9 3 3
53 4 53 1z m-458 -68 c-54 -82 -125 -187 -128 -187 -2 0 -1 15 1 33 10 92 16
144 20 162 2 11 4 22 4 25 1 3 30 6 66 7 l64 2 -27 -42z m-189 -20 c-13 -129
-28 -238 -34 -240 -5 -1 -369 272 -369 277 0 1 51 3 112 4 62 2 114 4 115 5 1
1 42 3 91 4 l90 3 -5 -53z m738 31 c-22 -56 -126 -323 -164 -420 -23 -60 -45
-108 -48 -108 -3 0 -33 81 -66 180 l-61 179 31 19 c42 25 309 171 314 172 1 0
-1 -10 -6 -22z m-441 -82 l17 -52 -36 -21 c-20 -11 -63 -35 -96 -53 l-60 -34
19 29 c85 131 130 194 135 190 3 -3 12 -29 21 -59z m-743 29 c10 -8 97 -73
193 -145 96 -72 175 -134 175 -137 0 -3 -34 -18 -75 -33 -67 -24 -316 -117
-364 -136 -19 -7 -19 8 -1 141 10 70 35 272 37 298 3 31 10 33 35 12z m-1490
-261 c-3 -2 -131 38 -136 42 -4 3 8 37 35 99 7 17 20 48 30 70 l16 40 29 -125
c15 -68 27 -125 26 -126z m-577 111 c141 -47 259 -85 262 -85 3 0 21 -7 41
-15 l35 -15 -36 -95 -37 -96 -98 -45 -99 -44 -19 24 c-37 47 -306 412 -325
441 -19 29 -19 29 0 22 11 -4 135 -46 276 -92z m-170 -197 l172 -233 -168 -82
c-93 -45 -171 -80 -174 -78 -3 2 -7 111 -9 242 -1 131 -3 271 -4 311 -1 39 1
72 5 72 3 0 83 -105 178 -232z m3081 11 c31 -96 56 -175 54 -177 -1 -1 -86 47
-189 107 l-187 109 123 70 c68 39 127 69 133 68 5 -1 35 -81 66 -177z m-976
99 c-3 -7 -7 -31 -9 -53 -21 -199 -18 -190 -71 -208 l-45 -16 16 37 c9 20 34
85 57 144 23 60 45 108 49 108 4 0 5 -6 3 -12z m-1459 -64 c30 -8 54 -17 54
-20 0 -8 -153 -75 -158 -69 -3 3 0 15 6 28 6 12 16 34 22 50 11 32 7 31 76 11z
m2287 -177 c71 -41 127 -79 125 -83 -2 -4 -43 -9 -93 -11 -49 -2 -104 -5 -121
-7 -30 -4 -31 -3 -56 77 -45 141 -44 131 -11 114 15 -9 86 -49 156 -90z
m-2001 -184 c75 -153 134 -280 132 -282 -3 -3 -44 8 -92 23 -193 61 -303 96
-417 131 -66 21 -123 39 -127 42 -8 4 343 360 358 362 5 0 71 -124 146 -276z
m1804 80 c-1 -1 -44 -4 -94 -6 -93 -5 -93 -5 -79 17 8 11 36 59 63 105 l49 85
31 -100 c17 -54 31 -100 30 -101z m-217 77 c-38 -65 -59 -90 -74 -91 -175 -7
-208 -7 -195 1 160 97 316 187 319 184 2 -2 -20 -44 -50 -94z m-1975 -20 c-43
-44 -80 -77 -82 -72 -1 5 6 28 17 51 15 34 30 49 72 71 30 16 58 29 63 29 5 1
-27 -35 -70 -79z m1756 46 c0 -5 -156 -96 -164 -96 -7 0 0 30 10 39 5 5 41 20
79 34 81 30 75 28 75 23z m-1902 -73 c-13 -28 -28 -63 -40 -96 l-14 -39 -28
37 c-21 27 -25 40 -17 48 9 9 68 42 99 56 2 0 2 -2 0 -6z m1662 -21 c0 -15
-11 -21 -27 -15 -12 5 -12 7 -1 14 17 11 28 11 28 1z m-1788 -153 c-4 -4 -52
-10 -107 -14 -55 -4 -113 -8 -128 -10 -49 -6 -25 13 78 63 l100 49 32 -41 c18
-22 29 -44 25 -47z m2863 44 c-24 -79 -154 -459 -154 -451 -1 4 -32 109 -71
234 -38 124 -70 232 -70 239 0 8 24 13 77 14 43 1 78 3 79 4 1 1 36 3 78 5
l75 3 -14 -48z m-1115 22 c0 -1 -6 -8 -14 -14 -11 -9 -15 -7 -19 8 -3 14 0 17
14 14 11 -3 19 -7 19 -8z m779 -132 c98 -319 112 -365 108 -369 -2 -2 -34 18
-73 44 -38 26 -148 101 -244 166 -96 66 -177 120 -179 122 -2 2 19 39 45 83
55 90 43 84 200 89 l100 3 43 -138z m-411 68 c-17 -31 -32 -57 -34 -59 -4 -5
-144 90 -144 98 0 4 30 8 67 9 37 1 69 3 70 4 1 2 18 3 38 4 l35 1 -32 -57z
m-448 -1 c0 -8 -16 -33 -35 -55 -39 -45 -42 -44 -19 11 9 22 21 50 26 64 7 20
11 22 18 10 6 -8 10 -22 10 -30z m293 -68 c43 -29 77 -57 75 -61 -10 -25 -122
-210 -125 -207 -2 2 -12 70 -23 152 -11 82 -22 157 -24 166 -5 21 -10 23 97
-50z m-160 -21 c7 -63 5 -63 -21 6 -14 37 -16 55 -9 62 15 15 23 -2 30 -68z
m-1763 -13 c0 -13 -4 -50 -9 -83 -5 -33 -12 -85 -16 -115 -8 -77 -13 -118 -21
-170 l-6 -45 -193 200 c-107 110 -192 201 -191 202 4 4 84 11 206 18 63 4 116
8 117 9 2 2 28 4 58 5 51 2 55 1 55 -21z m156 -7 c32 -11 154 -50 269 -86 116
-36 230 -73 254 -82 l45 -16 -325 -129 c-178 -70 -332 -131 -342 -134 -19 -6
-19 10 -2 196 13 140 18 209 18 238 0 38 4 38 83 13z m1614 -254 c0 -6 -173
79 -244 120 -4 3 25 39 65 79 l73 74 53 -132 c29 -73 53 -136 53 -141z m459
86 c329 -225 315 -215 284 -209 -11 3 -96 12 -189 21 -93 9 -185 18 -204 20
-19 3 -71 7 -115 11 -44 3 -83 9 -87 12 -4 4 20 52 54 107 80 133 87 145 94
145 3 0 76 -48 163 -107z m-2417 -201 l121 -124 -7 -61 c-3 -34 -9 -89 -12
-122 -4 -33 -8 -62 -10 -64 -2 -3 -241 475 -281 564 -3 6 12 -8 32 -30 20 -22
91 -96 157 -163z m1767 126 c224 -120 212 -111 185 -136 -10 -10 -129 -132
-263 -270 -135 -139 -246 -250 -248 -249 -1 2 15 59 37 128 22 68 72 226 112
352 39 125 74 227 76 227 3 0 48 -23 101 -52z m-794 -25 c-2 -21 -7 -65 -10
-98 -7 -76 -13 -137 -20 -195 -3 -25 -8 -76 -11 -115 -4 -38 -8 -81 -9 -95 -5
-48 -18 -175 -19 -193 -1 -9 -4 -18 -7 -20 -8 -2 -623 451 -627 463 -1 4 131
60 295 125 164 65 323 128 353 141 30 13 56 23 57 24 2 0 1 -17 -2 -37z m199
-413 c67 -179 121 -327 119 -329 -2 -3 -75 -6 -163 -9 l-159 -4 4 34 c2 18 7
66 11 107 3 41 8 84 10 95 2 12 6 55 9 96 4 41 8 82 10 90 2 8 7 51 11 95 4
44 8 89 10 100 1 11 3 31 4 45 2 32 -10 59 134 -320z m1136 274 c36 -3 76 -7
90 -9 14 -2 59 -6 100 -10 41 -4 82 -8 90 -10 27 -5 185 -19 193 -17 4 1 7 -1
7 -6 0 -14 -207 -307 -217 -307 -6 0 -41 27 -78 60 -199 176 -345 308 -345
312 0 3 21 2 48 -1 26 -3 76 -8 112 -12z m-135 -389 c48 -121 96 -242 106
-269 l20 -48 -78 6 c-73 7 -116 11 -203 21 -19 2 -66 7 -105 10 -38 4 -77 8
-85 10 -8 2 -49 7 -90 10 -41 4 -88 8 -105 10 -38 5 -166 18 -182 18 -27 1
-34 -8 316 356 113 118 217 225 230 239 l24 24 33 -83 c18 -46 72 -183 119
-304z m28 255 c22 -19 67 -60 101 -91 34 -30 83 -75 110 -100 28 -24 65 -58
84 -75 l33 -31 -82 -117 c-45 -64 -86 -113 -90 -109 -6 7 -62 149 -220 562
-11 27 -9 26 64 -39z m-1711 -241 c128 -94 240 -179 248 -187 13 -13 11 -14
-20 -8 -50 10 -60 13 -105 24 -22 6 -51 13 -65 16 -86 15 -267 61 -276 70 -11
10 -15 37 -30 186 -2 25 -7 54 -10 64 -5 14 -2 18 9 13 8 -3 120 -83 249 -178z
m2262 35 c-14 -71 -29 -135 -33 -142 -5 -9 -19 -2 -51 26 l-43 38 73 107 c41
59 75 105 77 104 2 -2 -9 -62 -23 -133z m-2566 -63 c2 -31 -1 -41 -13 -41 -10
0 -14 7 -11 23 3 12 5 32 5 45 1 38 17 16 19 -27z m2445 -115 c20 -19 37 -36
37 -39 0 -2 -28 -17 -62 -32 -121 -53 -133 -58 -142 -63 -5 -3 18 34 50 81 32
47 64 86 69 86 6 0 27 -15 48 -33z m-2438 -6 c10 -16 23 -112 15 -103 -5 4
-13 24 -18 43 -5 19 -13 43 -17 53 -8 18 9 24 20 7z m241 -51 c71 -17 136 -32
144 -34 8 -2 47 -11 85 -20 39 -9 79 -18 90 -21 65 -13 76 -17 68 -24 -11 -11
-420 -263 -461 -284 l-32 -17 -1 33 c0 18 -2 44 -4 58 -12 86 -25 192 -30 235
-3 28 -8 62 -11 78 -7 34 -7 34 152 -4z m2198 -91 c-26 -44 -187 -279 -189
-276 -9 8 -45 171 -40 177 5 5 218 106 233 110 2 1 0 -5 -4 -11z m-1564 -45
c-60 -23 -65 -23 -77 -7 -7 9 -11 20 -9 23 3 3 37 7 78 8 l73 1 -65 -25z m202
-40 c-79 -206 -127 -323 -134 -323 -4 0 -8 5 -8 10 0 6 -23 65 -51 131 -27 67
-47 124 -44 128 5 4 231 94 252 100 2 1 -5 -20 -15 -46z m468 -75 c162 -60
312 -114 333 -120 43 -12 45 -19 15 -50 -13 -13 -54 -59 -92 -103 -39 -44 -75
-84 -80 -90 -6 -5 -26 -28 -45 -50 -19 -22 -67 -77 -108 -122 -41 -45 -80 -89
-88 -99 -11 -16 -28 28 -124 327 -62 189 -119 364 -126 387 -13 41 -13 43 3
37 9 -4 150 -56 312 -117z m-8 108 c37 -4 77 -9 90 -11 13 -2 57 -6 98 -10 41
-4 86 -8 100 -10 14 -1 57 -6 95 -9 82 -8 159 -17 162 -20 1 -1 -24 -30 -55
-64 l-57 -63 -125 47 c-69 25 -172 63 -230 84 -142 51 -160 59 -160 65 0 4 3
4 8 2 4 -3 37 -8 74 -11z m-807 -17 c4 -11 5 -23 2 -25 -2 -3 -62 -27 -132
-54 -70 -27 -124 -45 -119 -40 17 17 219 139 231 139 6 1 15 -8 18 -20z m540
-368 c62 -187 111 -341 108 -341 -3 0 -41 26 -85 58 -137 97 -201 142 -251
175 -36 24 -47 37 -43 52 2 11 32 92 66 180 34 88 67 175 73 192 6 18 12 31
14 29 2 -2 55 -157 118 -345z m-445 124 c33 -82 60 -150 60 -152 0 -4 1 -4
-290 47 -124 22 -243 42 -264 46 -21 3 -48 9 -60 14 -20 8 -20 8 4 14 14 4
129 47 255 95 127 48 231 87 233 86 1 -1 29 -69 62 -150z m1348 10 c-3 -3 -33
5 -67 16 l-62 21 23 27 c12 14 34 39 48 54 l24 28 19 -71 c11 -39 17 -73 15
-75z m-101 -47 c32 -12 61 -24 66 -28 4 -4 -63 -52 -150 -109 -87 -56 -196
-127 -243 -158 -50 -33 -77 -46 -64 -32 47 55 169 194 174 199 3 3 34 38 69
78 35 39 70 72 77 72 7 0 38 -10 71 -22z m-1782 -88 c28 -5 64 -12 80 -14 17
-3 73 -12 125 -21 52 -9 109 -18 125 -21 17 -3 37 -7 45 -9 8 -2 31 -6 50 -9
19 -3 59 -10 89 -16 29 -5 56 -10 60 -10 3 0 -10 -14 -28 -31 -36 -31 -64 -57
-280 -259 -68 -63 -128 -115 -134 -115 -5 0 -52 92 -104 205 -51 113 -105 229
-118 258 -14 29 -25 55 -25 57 0 5 28 2 115 -15z m1872 -27 c-4 -7 -173 -526
-214 -655 -10 -33 -23 -56 -29 -54 -12 5 -331 235 -376 272 l-27 22 52 33 c56
36 539 352 572 374 23 16 28 18 22 8z m-1139 -150 c12 -10 91 -67 177 -127 85
-60 154 -111 152 -113 -2 -1 -17 -5 -33 -7 -16 -2 -74 -9 -129 -17 -55 -7
-113 -13 -130 -14 l-29 0 -18 130 c-18 135 -20 165 -15 165 2 0 13 -8 25 -17z
m-83 -158 c3 -38 8 -84 11 -101 l5 -32 -88 -11 c-48 -7 -105 -14 -127 -18
l-38 -5 43 63 c23 35 72 107 108 159 l66 94 6 -39 c4 -22 10 -71 14 -110z
m-275 -95 c-53 -79 -64 -90 -89 -90 -16 0 -38 -3 -48 -6 -10 -3 27 37 82 90
55 52 103 96 108 96 4 0 -20 -40 -53 -90z m-348 -37 c46 -101 55 -139 44 -188
-2 -11 -5 -31 -5 -44 -1 -29 -8 -25 -15 9 -6 35 -76 308 -83 328 -17 48 15
-10 59 -105z m1026 -56 c-12 -17 -30 -41 -40 -52 -9 -11 -64 -80 -121 -153
l-105 -133 -7 63 c-4 35 -8 70 -10 78 -1 8 -6 47 -10 85 -4 39 -9 78 -10 88
-2 9 2 17 8 18 12 0 38 4 112 13 22 3 65 8 95 12 30 3 56 7 57 8 1 1 14 3 28
4 l26 2 -23 -33z m317 -117 c99 -73 182 -134 184 -136 8 -7 -4 -12 -49 -18
-25 -3 -180 -29 -345 -56 -164 -27 -300 -48 -302 -46 -8 8 313 404 322 396 5
-4 91 -67 190 -140z m-693 80 c0 -8 2 -19 3 -25 1 -5 5 -41 9 -80 4 -38 9 -81
11 -95 2 -14 6 -47 10 -73 l6 -48 -33 17 c-44 22 -340 194 -355 206 -15 12 24
77 47 79 8 0 29 2 45 4 17 2 48 6 70 9 22 3 63 8 90 12 28 3 51 7 52 8 10 9
43 -2 45 -14z m-425 -46 c-3 -3 -12 -4 -19 -1 -8 3 -5 6 6 6 11 1 17 -2 13 -5z
m-37 -69 c0 -12 -19 -12 -23 0 -4 9 -1 12 9 8 7 -3 14 -7 14 -8z m203 -121
c73 -43 144 -83 159 -91 15 -8 30 -17 32 -21 4 -7 -298 -5 -319 2 -6 2 -21 29
-34 61 -23 54 -23 59 -8 91 9 19 21 34 27 34 6 0 70 -34 143 -76z m-270 43 c3
-7 -2 -22 -9 -32 -14 -19 -14 -18 -10 5 2 14 5 28 5 33 1 11 8 8 14 -6z m1426
-119 c-6 -13 -28 -52 -49 -88 -20 -36 -49 -85 -62 -110 -50 -89 -210 -365
-214 -369 -2 -3 -12 4 -22 15 -9 11 -35 40 -57 65 -22 24 -65 73 -95 108 -30
36 -59 69 -65 75 -95 103 -176 200 -169 203 10 2 302 50 362 59 20 3 111 18
202 34 91 15 169 28 173 29 4 0 2 -9 -4 -21z m-1379 -25 c0 -7 -11 -13 -25
-13 -25 0 -25 0 -9 26 13 19 19 22 25 12 5 -7 9 -19 9 -25z m35 -85 c7 -12
103 -263 101 -265 -4 -4 -176 256 -176 266 0 7 70 6 75 -1z m474 -7 c2 -1 -3
-9 -11 -18 -8 -10 -61 -100 -118 -201 -56 -100 -104 -181 -106 -179 -5 5 -154
391 -154 400 0 6 359 4 389 -2z m171 -162 c52 -67 136 -174 187 -237 51 -64
91 -117 90 -119 -2 -1 -139 -4 -305 -7 l-303 -5 15 27 c8 15 47 99 86 187 40
88 83 186 98 218 14 31 28 57 31 57 4 0 49 -55 101 -121z m580 -203 c-38 -125
-71 -231 -75 -234 -3 -3 -13 5 -22 18 -9 12 -24 30 -35 39 -10 8 -18 22 -18
30 0 15 210 384 216 379 1 -2 -28 -106 -66 -232z m-1132 -13 c45 -67 82 -128
82 -135 0 -7 -12 -31 -25 -52 -16 -27 -26 -35 -29 -25 -3 7 -30 82 -60 164
-30 83 -58 159 -62 170 -12 33 8 8 94 -122z m929 -236 c11 -11 2 -12 -59 -3
-65 9 -69 11 -38 17 45 8 80 3 97 -14z m-669 -2 c3 -3 -6 -5 -20 -5 -14 0 -41
-3 -59 -7 -31 -6 -33 -5 -20 11 11 13 24 16 54 12 22 -3 42 -8 45 -11z"/>
</g>
</svg>
